<svg width="24" height="24" viewBox="0 0 24 24" fill="none" xmlns="http://www.w3.org/2000/svg">
<g id="bx:bxs-book-reader">
<path id="Vector" d="M2 8V19.529C2 19.529 6.621 19.357 12 22C17.379 19.357 22 19.529 22 19.529V8C22 8 16.546 8 12 10.471C7.454 8 2 8 2 8Z" fill="url(#paint0_linear_74_887)" fill-opacity="0.75"/>
<path id="Vector_2" d="M12 8C13.6569 8 15 6.65685 15 5C15 3.34315 13.6569 2 12 2C10.3431 2 9 3.34315 9 5C9 6.65685 10.3431 8 12 8Z" fill="url(#paint1_linear_74_887)" fill-opacity="0.75"/>
</g>
<defs>
<linearGradient id="paint0_linear_74_887" x1="22" y1="15" x2="2" y2="15" gradientUnits="userSpaceOnUse">
<stop stop-color="#800080"/>
<stop offset="1" stop-color="#FF864C"/>
</linearGradient>
<linearGradient id="paint1_linear_74_887" x1="15" y1="5" x2="9" y2="5" gradientUnits="userSpaceOnUse">
<stop stop-color="#800080"/>
<stop offset="1" stop-color="#FF864C"/>
</linearGradient>
</defs>
</svg>
