<svg width="28" height="26" viewBox="0 0 28 26" fill="none" xmlns="http://www.w3.org/2000/svg">
<path id="Vector" d="M25.61 0.945312H2.13515C1.74603 0.945313 1.37284 1.08989 1.0977 1.34725C0.822546 1.60461 0.667969 1.95366 0.667969 2.31761V24.2744C0.667969 24.6384 0.822546 24.9874 1.0977 25.2448C1.37284 25.5021 1.74603 25.6467 2.13515 25.6467H14.7749V16.0955H11.3446V12.356H14.7749V9.61139C14.7749 6.42079 16.8583 4.68209 19.91 4.68209C20.9356 4.67934 21.9626 4.72875 22.9838 4.82892V8.14989H20.8784C19.2234 8.14989 18.9006 8.88819 18.9006 9.96819V12.3491H22.8576L22.3441 16.0887H18.8991V25.6467H25.61C25.9991 25.6467 26.3723 25.5021 26.6475 25.2448C26.9226 24.9874 27.0772 24.6384 27.0772 24.2744V2.31761C27.0772 1.95366 26.9226 1.60461 26.6475 1.34725C26.3723 1.08989 25.9991 0.945313 25.61 0.945312Z" fill="white"/>
</svg>
