<svg width="27" height="26" viewBox="0 0 27 26" fill="none" xmlns="http://www.w3.org/2000/svg">
<path id="Vector" d="M13.3531 0.945312C9.76343 0.945312 9.31607 0.961525 7.91125 1.01711C6.50066 1.08196 5.5465 1.28654 4.7046 1.59226C3.82347 1.9034 3.02548 2.39054 2.36627 3.01972C1.69171 3.63486 1.1706 4.38166 0.840116 5.20684C0.513261 5.9943 0.294532 6.88675 0.225199 8.20612C0.161644 9.52086 0.148438 9.93852 0.148438 13.296C0.148438 16.6535 0.165771 17.0719 0.225199 18.3859C0.294532 19.7014 0.513261 20.5977 0.840116 21.3852C1.17277 22.2094 1.69358 22.9557 2.36627 23.5723C3.02394 24.2033 3.82237 24.6907 4.7046 24.9998C5.5465 25.3016 6.50478 25.5101 7.91125 25.5749C9.3169 25.6344 9.76343 25.6467 13.3531 25.6467C16.9427 25.6467 17.3901 25.6305 18.7949 25.5749C20.2013 25.5101 21.1596 25.3009 22.0015 24.9998C22.8827 24.6886 23.6807 24.2015 24.3399 23.5723C25.0153 22.9579 25.5365 22.2109 25.866 21.3852C26.1887 20.5977 26.4116 19.7014 26.4809 18.3859C26.5445 17.0712 26.5577 16.6535 26.5577 13.296C26.5577 9.93852 26.5404 9.52009 26.4809 8.20612C26.4116 6.89061 26.1879 5.98966 25.866 5.20684C25.5334 4.38268 25.0125 3.6363 24.3399 3.01972C23.6829 2.38797 22.8843 1.90043 22.0015 1.59226C21.1596 1.28654 20.2013 1.08196 18.7949 1.01711C17.3892 0.957665 16.9427 0.945312 13.3531 0.945312ZM13.3531 3.16872C16.8783 3.16872 17.2993 3.18493 18.6925 3.24052C19.9777 3.29687 20.6776 3.4976 21.1423 3.66744C21.7168 3.86579 22.2367 4.18149 22.6643 4.59154C23.102 4.98977 23.4382 5.475 23.6482 6.01128C23.8298 6.44592 24.0444 7.10059 24.1046 8.30262C24.1641 9.60579 24.1814 10.0003 24.1814 13.2968C24.1814 16.5933 24.1641 16.9878 24.0997 18.291C24.0303 19.493 23.8157 20.1477 23.635 20.5823C23.3849 21.1621 23.1059 21.5674 22.6453 22.0059C22.2163 22.4134 21.6967 22.7276 21.1233 22.9261C20.6644 23.096 19.9546 23.2967 18.6645 23.3531C17.2638 23.4087 16.8511 23.4249 13.3167 23.4249C9.78242 23.4249 9.37055 23.4087 7.9682 23.3484C6.68307 23.2836 5.97406 23.0829 5.50936 22.9138C4.88206 22.6799 4.45203 22.4189 3.99146 21.9881C3.52677 21.5535 3.23128 21.1397 3.00347 20.5645C2.81858 20.1353 2.60728 19.4714 2.53877 18.2647C2.49173 16.97 2.46944 16.5686 2.46944 13.2783C2.46944 9.98948 2.49173 9.58726 2.53877 8.27637C2.60728 7.06971 2.81858 6.40732 3.00347 5.97654C3.23128 5.38904 3.52759 4.98759 3.99146 4.55294C4.45121 4.12293 4.88206 3.845 5.50936 3.6273C5.97406 3.45822 6.66574 3.2575 7.95582 3.19728C9.35651 3.15019 9.76921 3.13321 13.2986 3.13321L13.3531 3.16872ZM13.3531 6.957C12.4627 6.9567 11.5811 7.12049 10.7585 7.43903C9.93588 7.75756 9.18845 8.22459 8.5589 8.81343C7.92935 9.40227 7.43003 10.1014 7.08947 10.8708C6.74891 11.6402 6.57379 12.4648 6.57412 13.2976C6.57379 14.1303 6.74891 14.9549 7.08947 15.7244C7.43003 16.4938 7.92935 17.1929 8.5589 17.7817C9.18845 18.3705 9.93588 18.8376 10.7585 19.1561C11.5811 19.4746 12.4627 19.6384 13.3531 19.6381C14.2434 19.6384 15.125 19.4746 15.9476 19.1561C16.7702 18.8376 17.5177 18.3705 18.1472 17.7817C18.7768 17.1929 19.2761 16.4938 19.6167 15.7244C19.9572 14.9549 20.1323 14.1303 20.132 13.2976C20.1323 12.4648 19.9572 11.6402 19.6167 10.8708C19.2761 10.1014 18.7768 9.40227 18.1472 8.81343C17.5177 8.22459 16.7702 7.75756 15.9476 7.43903C15.125 7.12049 14.2434 6.9567 13.3531 6.957ZM13.3531 17.4147C10.9198 17.4147 8.95125 15.5735 8.95125 13.2976C8.95125 11.0217 10.9198 9.1804 13.3531 9.1804C15.7863 9.1804 17.7549 11.0217 17.7549 13.2976C17.7549 15.5735 15.7863 17.4147 13.3531 17.4147ZM21.99 6.70378C21.9895 7.09725 21.8221 7.47446 21.5245 7.75254C21.2269 8.03062 20.8234 8.18682 20.4027 8.18682C20.1947 8.18682 19.9888 8.1485 19.7966 8.07405C19.6044 7.9996 19.4298 7.89047 19.2827 7.7529C19.1357 7.61533 19.019 7.45201 18.9394 7.27227C18.8598 7.09252 18.8188 6.89988 18.8188 6.70532C18.8188 6.51077 18.8598 6.31812 18.9394 6.13838C19.019 5.95863 19.1357 5.79531 19.2827 5.65774C19.4298 5.52017 19.6044 5.41105 19.7966 5.3366C19.9888 5.26214 20.1947 5.22382 20.4027 5.22382C21.2752 5.22382 21.99 5.88776 21.99 6.70378Z" fill="white"/>
</svg>
