<svg width="44" height="44" viewBox="0 0 44 44" fill="none" xmlns="http://www.w3.org/2000/svg">
<circle cx="22" cy="22" r="22" fill="#D9D9D9" fill-opacity="0.25"/>
<g clip-path="url(#clip0_115_576)">
<path d="M22 23.5742C22.9946 23.5742 23.9484 23.1791 24.6517 22.4759C25.3549 21.7726 25.75 20.8188 25.75 19.8242C25.75 18.8297 25.3549 17.8758 24.6517 17.1726C23.9484 16.4693 22.9946 16.0742 22 16.0742C21.0054 16.0742 20.0516 16.4693 19.3483 17.1726C18.6451 17.8758 18.25 18.8297 18.25 19.8242C18.25 20.8188 18.6451 21.7726 19.3483 22.4759C20.0516 23.1791 21.0054 23.5742 22 23.5742Z" fill="url(#paint0_linear_115_576)"/>
<path d="M13 13C12.2044 13 11.4413 13.3161 10.8787 13.8787C10.3161 14.4413 10 15.2044 10 16V28C10 28.7956 10.3161 29.5587 10.8787 30.1213C11.4413 30.6839 12.2044 31 13 31H31C31.7956 31 32.5587 30.6839 33.1213 30.1213C33.6839 29.5587 34 28.7956 34 28V16C34 15.2044 33.6839 14.4413 33.1213 13.8787C32.5587 13.3161 31.7956 13 31 13H13ZM29.197 29.5C28.5175 27.595 26.557 25 22 25C17.4445 25 15.4825 27.595 14.803 29.5H13C12.6022 29.5 12.2206 29.342 11.9393 29.0607C11.658 28.7794 11.5 28.3978 11.5 28V16C11.5 15.6022 11.658 15.2206 11.9393 14.9393C12.2206 14.658 12.6022 14.5 13 14.5H31C31.3978 14.5 31.7794 14.658 32.0607 14.9393C32.342 15.2206 32.5 15.6022 32.5 16V28C32.5 28.3978 32.342 28.7794 32.0607 29.0607C31.7794 29.342 31.3978 29.5 31 29.5H29.197Z" fill="url(#paint1_linear_115_576)"/>
</g>
<defs>
<linearGradient id="paint0_linear_115_576" x1="25.75" y1="19.8242" x2="18.25" y2="19.8242" gradientUnits="userSpaceOnUse">
<stop stop-color="#800080"/>
<stop offset="1" stop-color="#FF864C"/>
</linearGradient>
<linearGradient id="paint1_linear_115_576" x1="34" y1="22" x2="10" y2="22" gradientUnits="userSpaceOnUse">
<stop stop-color="#800080"/>
<stop offset="1" stop-color="#FF864C"/>
</linearGradient>
<clipPath id="clip0_115_576">
<rect width="24" height="24" fill="white" transform="translate(10 10)"/>
</clipPath>
</defs>
</svg>
