<svg width="28" height="26" viewBox="0 0 28 26" fill="none" xmlns="http://www.w3.org/2000/svg">
<path id="Vector" d="M24.9156 0.945312H2.75155C1.57964 0.945312 0.628906 1.83456 0.628906 2.93069V23.6614C0.628906 24.7575 1.57964 25.6467 2.75155 25.6467H24.9156C26.0875 25.6467 27.0382 24.7575 27.0382 23.6614V2.93069C27.0382 1.83456 26.0875 0.945312 24.9156 0.945312ZM24.9156 23.6706C10.133 23.6675 2.74165 23.6644 2.74165 23.6614C2.74495 9.83473 2.74825 2.92143 2.75155 2.92143C17.5342 2.92451 24.9255 2.9276 24.9255 2.93069C24.9222 16.7573 24.9189 23.6706 24.9156 23.6706ZM4.54409 10.2053H8.46257V21.994H4.54409V10.2053ZM6.50498 8.59349C7.75612 8.59349 8.77618 7.64248 8.77618 6.46917C8.77618 6.1902 8.71743 5.91396 8.6033 5.65622C8.48916 5.39849 8.32186 5.16431 8.11096 4.96704C7.90006 4.76978 7.64968 4.61331 7.37413 4.50655C7.09857 4.39979 6.80324 4.34485 6.50498 4.34485C6.20672 4.34485 5.91138 4.39979 5.63583 4.50655C5.36027 4.61331 5.1099 4.76978 4.899 4.96704C4.6881 5.16431 4.5208 5.39849 4.40666 5.65622C4.29252 5.91396 4.23378 6.1902 4.23378 6.46917C4.23048 7.64248 5.24723 8.59349 6.50498 8.59349ZM14.8338 16.1614C14.8338 14.6237 15.1474 13.1355 17.1842 13.1355C19.1914 13.1355 19.2211 14.8924 19.2211 16.2602V21.994H23.1362V15.5284C23.1362 12.3543 22.4034 9.91193 18.4387 9.91193C16.5339 9.91193 15.2564 10.8907 14.7315 11.817H14.6787V10.2053H10.9186V21.994H14.8338V16.1614Z" fill="white"/>
</svg>
