<svg width="44" height="44" viewBox="0 0 44 44" fill="none" xmlns="http://www.w3.org/2000/svg">
<circle cx="22" cy="22" r="22" fill="#D9D9D9" fill-opacity="0.25"/>
<path fill-rule="evenodd" clip-rule="evenodd" d="M26.8064 12.9086C25.4292 12.226 23.8747 11.8418 22.2295 11.8418C16.5799 11.8418 12 16.372 12 21.9603C12 27.5486 16.5799 32.0788 22.2295 32.0788C27.8791 32.0788 32.459 27.5486 32.459 21.9603C32.459 21.0751 32.6749 21.8948 32.459 21.0765H23.6092L26.8064 12.9086Z" fill="url(#paint0_linear_115_575)"/>
<path d="M29.8638 11.0006C31.3792 11.8099 32.6635 12.9845 33.5976 14.4156C34.5318 15.8467 35.0856 17.4878 35.2077 19.187L25.0039 19.9043L29.8638 11.0006Z" fill="url(#paint1_linear_115_575)"/>
<defs>
<linearGradient id="paint0_linear_115_575" x1="32.5549" y1="21.9603" x2="12" y2="21.9603" gradientUnits="userSpaceOnUse">
<stop stop-color="#800080"/>
<stop offset="1" stop-color="#FF864C"/>
</linearGradient>
<linearGradient id="paint1_linear_115_575" x1="33.6626" y1="13.0293" x2="28.8843" y2="21.9766" gradientUnits="userSpaceOnUse">
<stop stop-color="#800080"/>
<stop offset="1" stop-color="#FF864C"/>
</linearGradient>
</defs>
</svg>
