<svg width="27" height="26" viewBox="0 0 27 26" fill="none" xmlns="http://www.w3.org/2000/svg">
<path id="Vector" d="M26.3277 6.27453C26.3277 6.27453 26.0702 3.85356 25.2762 2.79122C24.2709 1.39307 23.1452 1.38429 22.6302 1.30308C18.9376 0.945313 13.3913 0.945312 13.3913 0.945312H13.3814C13.3814 0.945312 7.83676 0.945313 4.14253 1.30308C3.62587 1.38649 2.50176 1.39307 1.49649 2.79122C0.702513 3.85356 0.449958 6.27453 0.449958 6.27453C0.449958 6.27453 0.1875 9.11473 0.1875 11.9615V14.6239C0.1875 17.4641 0.449958 20.3109 0.449958 20.3109C0.449958 20.3109 0.707465 22.7319 1.49649 23.7964C2.50176 25.1946 3.8223 25.1485 4.41159 25.2977C6.52612 25.5655 13.393 25.6467 13.393 25.6467C13.393 25.6467 18.9442 25.6336 22.6368 25.2824C23.1534 25.2012 24.2775 25.1924 25.2828 23.7942C26.0768 22.7319 26.3343 20.3087 26.3343 20.3087C26.3343 20.3087 26.5968 17.4685 26.5968 14.6217V11.9593C26.5918 9.11912 26.3293 6.27234 26.3293 6.27234L26.3277 6.27453ZM10.6561 17.8526V7.98217L17.7904 12.9339L10.6561 17.8526Z" fill="white"/>
</svg>
